<?xml version="1.0" encoding="UTF-8"?>
<svg width="32" height="32" viewBox="0 0 32 32" fill="none" xmlns="http://www.w3.org/2000/svg">
  <circle cx="16" cy="16" r="15" fill="#1976d2" />
  <path d="M17.5 8V9.5H19.5V10.5H14.5V9.5H16.5V8H15C13.3431 8 12 9.34315 12 11V13C12 14.6569 13.3431 16 15 16H17C17.5523 16 18 16.4477 18 17V19C18 19.5523 17.5523 20 17 20H15C14.4477 20 14 19.5523 14 19V18.5H12V19C12 20.6569 13.3431 22 15 22H16.5V23H14.5V24H19.5V23H17.5V22H19C20.6569 22 22 20.6569 22 19V17C22 15.3431 20.6569 14 19 14H17C16.4477 14 16 13.5523 16 13V11C16 10.4477 16.4477 10 17 10H19C19.5523 10 20 10.4477 20 11V11.5H22V11C22 9.34315 20.6569 8 19 8H17.5Z" fill="white"/>
</svg> 